<?xml version="1.0" encoding="utf-8"?>
<!-- Generator: Adobe Illustrator 16.0.3, SVG Export Plug-In . SVG Version: 6.00 Build 0)  -->
<!DOCTYPE svg PUBLIC "-//W3C//DTD SVG 1.1//EN" "http://www.w3.org/Graphics/SVG/1.1/DTD/svg11.dtd">
<svg version="1.1" id="圖層_1" xmlns="http://www.w3.org/2000/svg" xmlns:xlink="http://www.w3.org/1999/xlink" x="0px" y="0px"
	 width="370px" height="370px" viewBox="0 0 370 370" enable-background="new 0 0 370 370" xml:space="preserve">
<g>
	<path fill="#FFFFFF" d="M367.891,308.722c-7.996-2.421-16.051-4.671-24.152-6.757v-47.188l-0.277,0.246
		c0.18-1.069,0.277-2.172,0.277-3.293c0-7.612-4.215-14.487-11-17.944l-13.098-6.677v-9.207c0-5.069-2.91-9.422-7.59-11.362
		c-2.922-1.211-6.023-1.267-8.813-0.267l-23.355-23.354c1.148,0,2.281-0.473,3.105-1.293c0.816-0.817,1.285-1.953,1.285-3.106
		c0-1.16-0.469-2.297-1.285-3.113c-0.824-0.82-1.953-1.285-3.113-1.285s-2.297,0.465-3.113,1.285
		c-0.82,0.816-1.285,1.949-1.285,3.106l-3.195-3.192c1.117-0.004,2.242-0.433,3.105-1.289c1.711-1.719,1.711-4.504,0-6.223
		c-1.719-1.718-4.504-1.718-6.223,0c-0.859,0.856-1.289,1.977-1.289,3.102l-3.191-3.191c1.117,0,2.242-0.434,3.102-1.286
		c1.715-1.722,1.715-4.511,0-6.226c-1.719-1.719-4.504-1.719-6.224,0c-0.858,0.855-1.284,1.98-1.288,3.101l-1.402-1.402
		c-0.629-0.629-1.281-1.223-1.941-1.801c0.051,0,0.098,0.016,0.145,0.016c1.16,0,2.289-0.473,3.113-1.289
		c0.816-0.824,1.289-1.961,1.289-3.113c0-1.161-0.473-2.293-1.289-3.11c-0.824-0.824-1.953-1.289-3.113-1.289
		s-2.297,0.465-3.113,1.289c-0.816,0.817-1.285,1.949-1.285,3.11c0,0.437,0.086,0.859,0.211,1.269
		c-15.363-10.316-36.355-8.805-50.047,4.52v-32.309h1.199c2.43,0,4.402-1.969,4.402-4.398c0-2.43-1.973-4.403-4.402-4.403h-1.199
		v-11.769h14.512c7.59,0,13.766-6.176,13.766-13.77c0-7.59-6.176-13.765-13.766-13.765h-14.078c1.5-2.59,2.367-5.594,2.367-8.801
		c0-9.703-7.895-17.598-17.602-17.598c-9.703,0-17.598,7.895-17.598,17.598c0,3.207,0.864,6.211,2.368,8.801H158.73
		c-7.589,0-13.765,6.175-13.765,13.765c0,7.594,6.176,13.77,13.765,13.77h14.508v11.769h-1.199c-2.43,0-4.398,1.973-4.398,4.403
		c0,2.429,1.968,4.398,4.398,4.398h1.199v138.402h-7.25c-2.429,0-4.398,1.97-4.398,4.399v11.979
		c-7.317,0.403-14.625,0.942-21.922,1.61l-11.348-19.493c6.535-4.222,12.344-9.293,17.313-15.058l1.164,0.887
		c0.797,0.609,1.734,0.902,2.664,0.902c1.328,0,2.641-0.599,3.504-1.734c1.473-1.93,1.101-4.692-0.832-6.165L151,244.065
		c4.262-6.226,7.648-13.077,10.043-20.401l1.457,0.387c0.379,0.101,0.754,0.148,1.129,0.148c1.949,0,3.726-1.306,4.25-3.277
		c0.621-2.352-0.781-4.758-3.129-5.379l-1.414-0.375c1.602-7.539,2.105-15.164,1.547-22.685l1.457-0.198
		c2.406-0.324,4.098-2.539,3.769-4.949c-0.324-2.407-2.547-4.098-4.949-3.77l-1.41,0.192c-1.391-7.418-3.844-14.653-7.324-21.528
		l1.304-0.761c2.102-1.223,2.813-3.918,1.586-6.016c-1.222-2.102-3.914-2.809-6.015-1.586l-1.262,0.734
		c-4.199-6.464-9.234-12.211-14.949-17.132l0.894-1.176c1.473-1.934,1.098-4.692-0.836-6.164c-1.937-1.473-4.695-1.098-6.168,0.836
		l-0.863,1.136c-6.23-4.265-13.086-7.652-20.418-10.05c0.367-2.211-1.004-4.383-3.215-4.969c-2.195-0.578-4.445,0.609-5.234,2.687
		c-7.551-1.605-15.18-2.109-22.711-1.55l-0.199-1.465c-0.324-2.41-2.539-4.098-4.949-3.766c-2.411,0.324-4.098,2.543-3.77,4.949
		l0.191,1.414c-7.417,1.387-14.652,3.84-21.523,7.325l-0.762-1.309c-1.222-2.102-3.918-2.813-6.015-1.59
		c-2.102,1.219-2.813,3.914-1.59,6.016l0.738,1.269c-6.527,4.246-12.246,9.305-17.109,14.965l-1.203-0.918
		c-1.934-1.469-4.692-1.094-6.164,0.84c-1.473,1.934-1.098,4.695,0.836,6.164l1.175,0.895c-4.316,6.316-7.683,13.187-10.047,20.379
		l-1.5-0.399c-2.351-0.617-4.757,0.785-5.375,3.137c-0.621,2.347,0.782,4.754,3.133,5.375l1.453,0.383
		c-1.57,7.406-2.105,15.039-1.543,22.668l-1.507,0.203c-2.407,0.328-4.094,2.547-3.77,4.953c0.301,2.207,2.188,3.808,4.356,3.808
		c0.195,0,0.398-0.015,0.597-0.043l1.449-0.195c1.364,7.341,3.774,14.587,7.286,21.531l-1.305,0.763
		c-2.102,1.219-2.813,3.913-1.59,6.016c0.816,1.402,2.289,2.187,3.809,2.187c0.75,0,1.511-0.19,2.207-0.597l1.273-0.743
		c4.246,6.528,9.297,12.258,14.957,17.118l-0.906,1.191c-1.477,1.934-1.102,4.694,0.832,6.168c0.793,0.608,1.73,0.901,2.66,0.901
		c1.328,0,2.641-0.597,3.504-1.733l0.894-1.177c6.262,4.277,13.063,7.634,20.188,9.992l-6.66,25.228
		c-10.59,2.586-21.125,5.461-31.488,8.604c-2.325,0.703-3.641,3.161-2.934,5.485c0.707,2.328,3.164,3.64,5.484,2.933
		c8.696-2.632,17.508-5.073,26.371-7.312l-1.148,4.358c-0.621,2.349,0.781,4.759,3.133,5.375c0.375,0.103,0.75,0.149,1.125,0.149
		c1.949,0,3.73-1.305,4.25-3.278l2.371-8.979c4.351-1.021,8.711-1.996,13.066-2.91c13.039-2.754,26.387-5.098,39.68-6.965
		c7.445-1.043,14.914-1.938,22.398-2.695l7.688,13.203c0.816,1.402,2.289,2.188,3.805,2.188c0.754,0,1.515-0.195,2.211-0.602
		c2.101-1.219,2.812-3.914,1.589-6.016l-5.636-9.677c31.66-2.68,63.566-2.812,95.222-0.379
		c42.566,3.274,84.813,11.192,125.566,23.543c0.422,0.129,0.852,0.192,1.277,0.192c1.887,0,3.633-1.227,4.207-3.125
		C371.531,311.887,370.219,309.429,367.891,308.722L367.891,308.722z M123.887,258.479l-23.024-39.539
		c0.426-0.34,0.836-0.69,1.239-1.051l36.5,27.793C134.344,250.554,129.414,254.863,123.887,258.479L123.887,258.479z
		 M69.613,207.233c-4.804-8.245-2-18.866,6.25-23.671c2.735-1.593,5.727-2.351,8.684-2.351c5.965,0,11.777,3.082,14.992,8.597
		c2.324,3.996,2.957,8.661,1.777,13.133c-1.179,4.47-4.031,8.216-8.027,10.543C85.039,218.289,74.418,215.488,69.613,207.233
		L69.613,207.233z M83.27,224.59l6.156,45.457c-1.578,0.104-3.153,0.156-4.731,0.156c-4.953,0-9.883-0.524-14.707-1.527
		l11.676-44.223C82.195,224.515,82.73,224.562,83.27,224.59L83.27,224.59z M92.008,223.547c0.383-0.114,0.765-0.231,1.144-0.364
		l23.094,39.664c-5.851,2.887-11.934,4.896-18.094,6.079L92.008,223.547z M143.98,238.719l-36.441-27.75
		c0.223-0.415,0.438-0.836,0.637-1.262l44.332,11.703C150.43,227.601,147.562,233.414,143.98,238.719L143.98,238.719z
		 M154.809,212.918l-44.258-11.685c0.051-0.472,0.086-0.94,0.109-1.409l45.465-6.156
		C156.555,200.054,156.129,206.515,154.809,212.918L154.809,212.918z M155.004,184.941l-45.391,6.145
		c-0.133-0.449-0.281-0.892-0.437-1.332l39.617-23.078C151.703,172.523,153.785,178.656,155.004,184.941L155.004,184.941z
		 M144.414,159.043l-39.551,23.035c-0.297-0.367-0.605-0.723-0.918-1.07l27.793-36.508
		C136.555,148.711,140.824,153.582,144.414,159.043L144.414,159.043z M97.023,175.574c-0.414-0.223-0.835-0.434-1.261-0.633
		l11.707-44.347c6.191,2.078,12,4.945,17.304,8.527L97.023,175.574z M84.457,126.797c4.836,0,9.695,0.5,14.516,1.496l-11.684,44.273
		c-0.465-0.051-0.93-0.086-1.398-0.109l-6.168-45.504C81.297,126.847,82.875,126.797,84.457,126.797L84.457,126.797z
		 M70.996,128.094l6.156,45.398c-0.453,0.133-0.902,0.281-1.347,0.437l-23.082-39.64C58.57,131.375,64.711,129.308,70.996,128.094
		L70.996,128.094z M45.094,138.679l23.035,39.559c-0.363,0.293-0.719,0.602-1.063,0.914l-36.5-27.789
		C34.727,146.59,39.586,142.308,45.094,138.679L45.094,138.679z M25.203,158.344l36.426,27.73c-0.223,0.409-0.434,0.832-0.633,1.254
		l-44.328-11.695C18.715,169.547,21.574,163.722,25.203,158.344L25.203,158.344z M14.379,184.129l44.238,11.675
		c-0.047,0.465-0.082,0.93-0.105,1.399l-45.457,6.164C12.629,196.894,13.082,190.422,14.379,184.129L14.379,184.129z
		 M14.176,212.094l45.367-6.148c0.133,0.452,0.281,0.901,0.441,1.348l-39.636,23.082C17.414,224.465,15.371,218.32,14.176,212.094
		L14.176,212.094z M24.738,238l39.559-23.035c0.297,0.363,0.598,0.726,0.914,1.074l-27.785,36.487
		C32.648,248.367,28.367,243.508,24.738,238L24.738,238z M44.402,257.89l27.739-36.425c0.351,0.191,0.703,0.382,1.066,0.554
		L61.5,266.363C55.48,264.32,49.727,261.476,44.402,257.89L44.402,257.89z M111.277,288.867
		c-13.492,1.895-27.043,4.272-40.273,7.065c-2.902,0.61-5.809,1.254-8.715,1.911l5.453-20.653
		c5.559,1.192,11.246,1.813,16.969,1.813c1.965,0,3.93-0.082,5.894-0.228l0.204,1.505c0.3,2.211,2.187,3.813,4.355,3.813
		c0.195,0,0.395-0.012,0.594-0.04c2.406-0.324,4.097-2.542,3.773-4.949l-0.199-1.453c7.277-1.351,14.457-3.726,21.348-7.187
		l9.363,16.086C123.777,287.226,117.516,287.992,111.277,288.867L111.277,288.867z M319.641,271.871h3.953
		c4.203,0,8.109-1.297,11.344-3.508v26.409c-8.793-2.323-15.297-10.347-15.297-19.862V271.871z M328.742,241.625
		c3.82,1.945,6.195,5.82,6.195,10.104c0,6.254-5.09,11.341-11.344,11.341h-3.953v-26.082L328.742,241.625z M308.684,214.672
		c0.504,0.207,2.156,1.062,2.156,3.229v57.009c0,8.491,3.629,16.147,9.414,21.512c-6.961-1.496-13.949-2.86-20.965-4.106v-71.304
		l5.582-5.583C306.406,213.894,308.176,214.461,308.684,214.672L308.684,214.672z M198.941,215.699
		c0.902,1.121,1.867,2.202,2.898,3.233c2.563,2.567,5.43,4.739,8.531,6.5c-0.848,2.888-1.289,5.907-1.289,8.996
		c0,0.129,0.008,0.258,0.008,0.392h-0.008v48.43c-3.379-0.082-6.762-0.133-10.141-0.16V215.699z M217.879,256.371
		c0.176,0.183,0.344,0.367,0.523,0.547c3.191,3.195,6.949,5.617,11.043,7.195v19.983c-3.855-0.222-7.707-0.414-11.566-0.565V256.371
		z M224.625,250.695c-4.352-4.349-6.746-10.125-6.746-16.267c0-6.136,2.395-11.914,6.742-16.261l0.449-0.449
		c4.348-4.344,10.121-6.739,16.266-6.739s11.922,2.396,16.266,6.739l16.262,16.265l-16.711,16.712
		c-4.344,4.348-10.117,6.737-16.262,6.737S228.969,255.043,224.625,250.695L224.625,250.695z M263.375,256.918l6.766-6.762v37.719
		c-3.844-0.492-7.691-0.946-11.547-1.36v-25.656C260.293,259.715,261.895,258.397,263.375,256.918L263.375,256.918z
		 M278.941,241.354l11.551-11.547v61.008c-3.844-0.625-7.695-1.211-11.551-1.758V241.354z M208.645,168.129
		c12.133-12.133,31.871-12.133,44.004,0l43.539,43.539l-16.098,16.094l-16.266-16.266c-6.008-6.008-13.992-9.317-22.488-9.317
		c-8.492,0-16.48,3.31-22.484,9.313l-0.449,0.448c-1.676,1.673-3.129,3.505-4.367,5.449c-2.156-1.296-4.16-2.863-5.974-4.679
		c-5.882-5.879-9.12-13.692-9.12-22c0-8.301,3.242-16.117,9.102-21.985L208.645,168.129z M188.039,63.496
		c4.852,0,8.801,3.945,8.801,8.797c0,4.851-3.949,8.801-8.801,8.801c-4.851,0-8.797-3.95-8.797-8.801
		C179.242,67.441,183.188,63.496,188.039,63.496L188.039,63.496z M158.73,99.828c-2.738,0-4.964-2.231-4.964-4.969
		s2.226-4.965,4.964-4.965h58.618c2.738,0,4.969,2.227,4.969,4.965s-2.23,4.969-4.969,4.969H158.73z M182.039,108.629h12v11.769h-12
		V108.629z M182.039,129.199h12v44.277c-2.426,5.063-3.754,10.618-3.875,16.368l-0.023,77.757h-8.102V129.199z M170.391,276.397
		h19.75v6.696c-6.585,0.046-13.172,0.207-19.75,0.472V276.397z M238.242,284.676v-18.559c0.879,0.073,1.758,0.116,2.648,0.116
		c3.059,0,6.047-0.433,8.902-1.265v20.66c-3.113-0.289-6.227-0.563-9.344-0.801C239.715,284.772,238.98,284.726,238.242,284.676
		L238.242,284.676z M238.242,284.676"/>
	<path fill="#FFFFFF" d="M96.168,201.582c0.816-3.099,0.383-6.324-1.23-9.094c-1.614-2.767-4.208-4.742-7.301-5.56
		c-3.098-0.815-6.325-0.378-9.094,1.235c-2.766,1.608-4.742,4.203-5.559,7.301c-0.816,3.097-0.379,6.324,1.231,9.093
		c2.226,3.817,6.254,5.954,10.383,5.954c2.047,0,4.121-0.523,6.015-1.629C93.379,207.272,95.352,204.679,96.168,201.582
		L96.168,201.582z M87.66,199.336c-0.215,0.824-0.742,1.515-1.476,1.94c-1.524,0.888-3.481,0.367-4.364-1.147
		c-0.429-0.739-0.547-1.598-0.328-2.422c0.219-0.82,0.742-1.512,1.481-1.942c0.492-0.285,1.043-0.433,1.597-0.433
		c0.274,0,0.551,0.035,0.821,0.104c0.824,0.22,1.511,0.742,1.941,1.481C87.762,197.656,87.879,198.512,87.66,199.336L87.66,199.336z
		 M87.66,199.336"/>
	<path fill="#FFFFFF" d="M213.48,207.808c2.43,0,4.398-1.972,4.398-4.401v-22.988c0-2.43-1.969-4.399-4.398-4.399
		s-4.402,1.969-4.402,4.399v22.988C209.078,205.836,211.051,207.808,213.48,207.808L213.48,207.808z M213.48,207.808"/>
	<path fill="#FFFFFF" d="M233.844,220.25c-2.43,0-4.398,1.969-4.398,4.397v19.824c0,2.43,1.969,4.403,4.398,4.403
		s4.398-1.974,4.398-4.403v-19.824C238.242,222.219,236.273,220.25,233.844,220.25L233.844,220.25z M233.844,220.25"/>
	<path fill="#FFFFFF" d="M233.844,198.429c2.43,0,4.398-1.968,4.398-4.397v-23.958c0-2.43-1.969-4.402-4.398-4.402
		s-4.398,1.972-4.398,4.402v23.958C229.445,196.461,231.414,198.429,233.844,198.429L233.844,198.429z M233.844,198.429"/>
	<path fill="#FFFFFF" d="M254.191,244.34c2.43,0,4.402-1.969,4.402-4.399v-11.25c0-2.429-1.973-4.397-4.402-4.397
		s-4.398,1.969-4.398,4.397v11.25C249.793,242.371,251.762,244.34,254.191,244.34L254.191,244.34z M254.191,244.34"/>
	<path fill="#FFFFFF" d="M254.191,199.008c2.43,0,4.402-1.969,4.402-4.403v-10.711c0-2.433-1.973-4.402-4.402-4.402
		s-4.398,1.969-4.398,4.402v10.711C249.793,197.035,251.762,199.008,254.191,199.008L254.191,199.008z M254.191,199.008"/>
	<path fill="#FFFFFF" d="M274.543,213.804c2.43,0,4.398-1.968,4.398-4.397v-5.466c0-2.433-1.969-4.401-4.398-4.401
		s-4.402,1.969-4.402,4.401v5.466C270.141,211.836,272.113,213.804,274.543,213.804L274.543,213.804z M274.543,213.804"/>
	<path fill="#FFFFFF" d="M48.84,80.285c0.148,2.312,2.07,4.113,4.39,4.113h70.446c2.039,0,3.812-1.398,4.281-3.383
		c0.367-1.55,0.555-3.101,0.555-4.617c0-11.027-8.973-20-20-20c-2.828,0-5.567,0.59-8.102,1.719C96.047,53.031,89.621,50,82.789,50
		c-8.625,0-16.574,4.898-20.543,12.426c-7.734,1.714-13.457,8.617-13.457,16.773c0,0.316,0.02,0.629,0.039,0.938L48.84,80.285z
		 M65.5,70.832c1.723-0.102,3.23-1.199,3.852-2.813c2.128-5.515,7.527-9.218,13.437-9.218c5.172,0,9.977,2.8,12.531,7.312
		c0.625,1.102,1.696,1.879,2.934,2.137c1.238,0.258,2.531-0.031,3.543-0.793c1.961-1.477,4.281-2.258,6.715-2.258
		c5.906,0,10.758,4.598,11.172,10.402H58.402C59.684,72.918,62.348,71.012,65.5,70.832L65.5,70.832z M65.5,70.832"/>
	<path fill="#FFFFFF" d="M245.648,119.469c0.141,2.32,2.066,4.132,4.391,4.132h88.059c2.039,0,3.813-1.402,4.281-3.386
		c0.438-1.856,0.66-3.711,0.66-5.516c0-9.578-5.668-17.855-13.824-21.664c0.09-0.82,0.148-1.648,0.148-2.481
		c0-12.574-10.227-22.8-22.802-22.8c-9.769,0-18.28,6.172-21.46,15.113c-9.805,0.68-18.648,6.582-23.055,15.336
		c-9.422,1.844-16.457,10.148-16.457,19.996c0,0.359,0.02,0.711,0.043,1.063L245.648,119.469z M306.566,76.551
		c7.719,0,14,6.281,14,14c0,0.101-0.012,0.195-0.012,0.293c-0.469-0.028-0.938-0.043-1.414-0.043c-3.656,0-7.195,0.82-10.426,2.402
		c-3.703-4.586-8.762-7.871-14.402-9.41C296.711,79.429,301.34,76.551,306.566,76.551L306.566,76.551z M265.312,106.64
		c1.728-0.101,3.235-1.199,3.856-2.808c2.82-7.317,9.984-12.231,17.82-12.231c6.859,0,13.23,3.715,16.621,9.696
		c0.625,1.101,1.695,1.882,2.934,2.14c1.238,0.258,2.531-0.031,3.543-0.793c2.645-1.992,5.773-3.043,9.055-3.043
		c8.324,0,15.098,6.774,15.098,15.098v0.102h-79.34C256.289,110.289,260.371,106.926,265.312,106.64L265.312,106.64z
		 M265.312,106.64"/>
</g>
</svg>
