<?xml version="1.0" encoding="utf-8"?>
<!-- Generator: Adobe Illustrator 16.0.3, SVG Export Plug-In . SVG Version: 6.00 Build 0)  -->
<!DOCTYPE svg PUBLIC "-//W3C//DTD SVG 1.1//EN" "http://www.w3.org/Graphics/SVG/1.1/DTD/svg11.dtd">
<svg version="1.1" id="圖層_1" xmlns="http://www.w3.org/2000/svg" xmlns:xlink="http://www.w3.org/1999/xlink" x="0px" y="0px"
	 width="50px" height="43px" viewBox="0 0 50 43" enable-background="new 0 0 50 43" xml:space="preserve">
<g>
	<path fill="#FFFFFF" d="M26.199,22.746H9.504C8.121,22.746,7,23.879,7,25.262v4.797c0,1.414,1.145,2.59,2.559,2.59h17.378
		c1.414,0,2.523-1.176,2.523-2.59v-4.004C29.461,24.23,28.023,22.746,26.199,22.746L26.199,22.746z M26.199,22.746"/>
	<path fill="#FFFFFF" d="M41.086,9H23.824c-1.414,0-2.512,1.082-2.512,2.496v4.324c0.168-0.054,0.461-0.093,0.743-0.117l0.699-2.101
		c0.301-0.899,1.133-1.493,2.078-1.493h4.348c0.703,0,1.371,0.332,1.781,0.903c0.41,0.57,0.523,1.304,0.301,1.972l-0.25,0.746
		c0.586,0.004,1.172,0.008,1.73,0.012l0.598-1.793c0.301-0.898,1.137-1.5,2.082-1.5h4.348c0.703,0,1.371,0.34,1.781,0.91
		c0.41,0.571,0.523,1.309,0.301,1.977l-0.211,0.641c0.816,0.23,1.453,0.664,2.02,1.242v-5.723C43.66,10.082,42.504,9,41.086,9
		L41.086,9z M41.086,9"/>
	<path fill="#FFFFFF" d="M41.133,17.492l-0.23,0.695c-0.297,0.899-1.137,1.504-2.082,1.504h-4.348c-0.703,0-1.371-0.343-1.781-0.914
		c-0.297-0.414-0.438-0.918-0.41-1.414l-1.813-0.015l-0.157,0.492c-0.3,0.894-1.136,1.512-2.081,1.512h-4.348
		c-0.707,0-1.371-0.352-1.781-0.926c-0.227-0.309-0.36-0.68-0.403-1.051c-0.551,0.105-1.082,0.32-1.566,0.613l-5.317,3.231h11.383
		c2.715,0,4.898,2.129,4.898,4.836v4.004c0,0.602-0.117,1.18-0.355,1.695l11.66-6.977c0.754-0.453,1.258-1.27,1.258-2.148v-1.934
		C43.66,19.148,42.578,17.848,41.133,17.492L41.133,17.492z M41.133,17.492"/>
	<path fill="#FFFFFF" d="M23.883,18.109h4.348c0.426,0,0.805-0.269,0.938-0.672l0.949-2.843c0.102-0.301,0.051-0.629-0.137-0.887
		c-0.184-0.258-0.484-0.406-0.801-0.406h-4.348c-0.426,0-0.805,0.269-0.937,0.672l-0.95,2.843c-0.101,0.301-0.05,0.629,0.137,0.887
		C23.266,17.961,23.566,18.109,23.883,18.109L23.883,18.109z M23.883,18.109"/>
	<path fill="#FFFFFF" d="M34.473,18.449h4.348c0.426,0,0.805-0.258,0.938-0.664l0.949-2.832c0.102-0.301,0.051-0.641-0.137-0.898
		c-0.184-0.258-0.484-0.418-0.801-0.418h-4.348c-0.426,0-0.805,0.281-0.938,0.683l-0.949,2.852
		c-0.102,0.301-0.051,0.621,0.137,0.879C33.855,18.309,34.156,18.449,34.473,18.449L34.473,18.449z M34.473,18.449"/>
</g>
</svg>
